<mxGraphModel dx="1338" dy="1308" grid="1" gridSize="10" guides="1" tooltips="1" connect="1" arrows="1" fold="1" page="0" pageScale="1" pageWidth="827" pageHeight="1169" math="0" shadow="0"><root><mxCell id="0"/><mxCell id="1" parent="0"/><mxCell id="4" value="" style="whiteSpace=wrap;html=1;" parent="1" vertex="1"><mxGeometry x="-80" y="80" width="300" height="410" as="geometry"/></mxCell><mxCell id="2" value="&lt;font style=&quot;font-size: 24px&quot;&gt;Bean的生命周期&lt;/font&gt;" style="text;html=1;align=center;verticalAlign=middle;resizable=0;points=[];autosize=1;strokeColor=none;" parent="1" vertex="1"><mxGeometry x="-90" y="-40" width="190" height="20" as="geometry"/></mxCell><mxCell id="cGgcs7lgYfXuZMnNUs4B-34" style="edgeStyle=orthogonalEdgeStyle;rounded=0;orthogonalLoop=1;jettySize=auto;html=1;exitX=0.5;exitY=1;exitDx=0;exitDy=0;strokeWidth=2;" parent="1" source="12" target="25" edge="1"><mxGeometry relative="1" as="geometry"/></mxCell><mxCell id="12" value="" style="whiteSpace=wrap;html=1;fillColor=#dae8fc;strokeColor=#6c8ebf;" parent="1" vertex="1"><mxGeometry x="-35" y="100" width="210" height="130" as="geometry"/></mxCell><mxCell id="7" style="edgeStyle=none;html=1;exitX=0.5;exitY=1;exitDx=0;exitDy=0;strokeWidth=2;" parent="1" source="3" edge="1"><mxGeometry relative="1" as="geometry"><mxPoint x="70" y="100" as="targetPoint"/></mxGeometry></mxCell><mxCell id="21" style="edgeStyle=none;html=1;exitX=1;exitY=0.5;exitDx=0;exitDy=0;entryX=0;entryY=0.5;entryDx=0;entryDy=0;strokeWidth=2;" parent="1" source="3" target="20" edge="1"><mxGeometry relative="1" as="geometry"/></mxCell><mxCell id="3" value="&lt;font style=&quot;font-size: 14px&quot;&gt;实例化：分配内存，属性为默认值&lt;/font&gt;" style="whiteSpace=wrap;html=1;" parent="1" vertex="1"><mxGeometry x="-80" width="300" height="60" as="geometry"/></mxCell><mxCell id="18" style="edgeStyle=none;html=1;exitX=1;exitY=0.5;exitDx=0;exitDy=0;entryX=0;entryY=0.5;entryDx=0;entryDy=0;strokeWidth=2;" parent="1" source="5" target="16" edge="1"><mxGeometry relative="1" as="geometry"/></mxCell><mxCell id="5" value="&lt;font&gt;&lt;font style=&quot;font-size: 12px&quot;&gt;用户自定义属性赋值&lt;/font&gt;&lt;br&gt;&lt;/font&gt;" style="whiteSpace=wrap;html=1;" parent="1" vertex="1"><mxGeometry y="110" width="140" height="50" as="geometry"/></mxCell><mxCell id="8" value="Aware" style="whiteSpace=wrap;html=1;" parent="1" vertex="1"><mxGeometry x="440" width="120" height="60" as="geometry"/></mxCell><mxCell id="9" value="BeanFactory&lt;br&gt;ApplicationContext&lt;br&gt;Environment&lt;br&gt;ResourceLoader" style="whiteSpace=wrap;html=1;" parent="1" vertex="1"><mxGeometry x="420" y="80" width="180" height="90" as="geometry"/></mxCell><mxCell id="19" style="edgeStyle=none;html=1;exitX=1;exitY=0.5;exitDx=0;exitDy=0;strokeWidth=2;" parent="1" source="10" target="17" edge="1"><mxGeometry relative="1" as="geometry"/></mxCell><mxCell id="10" value="&lt;font&gt;&lt;font style=&quot;font-size: 12px&quot;&gt;容器对象赋值&lt;/font&gt;&lt;br&gt;&lt;/font&gt;" style="whiteSpace=wrap;html=1;" parent="1" vertex="1"><mxGeometry y="170" width="140" height="50" as="geometry"/></mxCell><mxCell id="14" value="属性&lt;br&gt;赋值" style="text;html=1;align=center;verticalAlign=middle;resizable=0;points=[];autosize=1;strokeColor=none;" parent="1" vertex="1"><mxGeometry x="140" y="150" width="40" height="30" as="geometry"/></mxCell><mxCell id="15" value="" style="endArrow=classic;html=1;strokeWidth=2;entryX=1;entryY=0.5;entryDx=0;entryDy=0;" parent="1" target="22" edge="1"><mxGeometry width="50" height="50" relative="1" as="geometry"><mxPoint x="-150" y="254.66" as="sourcePoint"/><mxPoint x="480" y="254.66" as="targetPoint"/><Array as="points"/></mxGeometry></mxCell><mxCell id="16" value="&lt;font&gt;&lt;font style=&quot;font-size: 12px&quot;&gt;populateBean&lt;/font&gt;&lt;br&gt;&lt;/font&gt;" style="whiteSpace=wrap;html=1;" parent="1" vertex="1"><mxGeometry x="250" y="110" width="140" height="50" as="geometry"/></mxCell><mxCell id="17" value="&lt;font&gt;&lt;font style=&quot;font-size: 12px&quot;&gt;invokeAwareMethods&lt;/font&gt;&lt;br&gt;&lt;/font&gt;" style="whiteSpace=wrap;html=1;" parent="1" vertex="1"><mxGeometry x="250" y="170" width="140" height="50" as="geometry"/></mxCell><mxCell id="20" value="&lt;font&gt;&lt;font style=&quot;font-size: 12px&quot;&gt;createBeanInstance&lt;/font&gt;&lt;br&gt;&lt;/font&gt;" style="whiteSpace=wrap;html=1;" parent="1" vertex="1"><mxGeometry x="250" y="5" width="140" height="50" as="geometry"/></mxCell><mxCell id="22" value="&lt;font&gt;是否获取到一个完整的bean对象？&lt;br&gt;bean的拓展实现&lt;br&gt;&lt;/font&gt;" style="whiteSpace=wrap;html=1;" parent="1" vertex="1"><mxGeometry x="230" y="230" width="210" height="50" as="geometry"/></mxCell><mxCell id="29" style="edgeStyle=orthogonalEdgeStyle;html=1;exitX=1;exitY=0.5;exitDx=0;exitDy=0;entryX=0.5;entryY=0;entryDx=0;entryDy=0;strokeWidth=2;rounded=0;" parent="1" source="25" target="28" edge="1"><mxGeometry relative="1" as="geometry"/></mxCell><mxCell id="cGgcs7lgYfXuZMnNUs4B-32" style="edgeStyle=orthogonalEdgeStyle;rounded=0;orthogonalLoop=1;jettySize=auto;html=1;exitX=0.5;exitY=1;exitDx=0;exitDy=0;strokeWidth=2;" parent="1" source="25" target="26" edge="1"><mxGeometry relative="1" as="geometry"/></mxCell><mxCell id="25" value="执行前置处理方法" style="whiteSpace=wrap;html=1;" parent="1" vertex="1"><mxGeometry y="280" width="140" height="50" as="geometry"/></mxCell><mxCell id="cGgcs7lgYfXuZMnNUs4B-33" style="edgeStyle=orthogonalEdgeStyle;rounded=0;orthogonalLoop=1;jettySize=auto;html=1;exitX=0.5;exitY=1;exitDx=0;exitDy=0;entryX=0.5;entryY=0;entryDx=0;entryDy=0;strokeWidth=2;" parent="1" source="26" target="27" edge="1"><mxGeometry relative="1" as="geometry"/></mxCell><mxCell id="cGgcs7lgYfXuZMnNUs4B-36" style="edgeStyle=orthogonalEdgeStyle;rounded=0;orthogonalLoop=1;jettySize=auto;html=1;exitX=1;exitY=0.5;exitDx=0;exitDy=0;entryX=0;entryY=0.5;entryDx=0;entryDy=0;strokeWidth=2;" parent="1" source="26" target="cGgcs7lgYfXuZMnNUs4B-35" edge="1"><mxGeometry relative="1" as="geometry"/></mxCell><mxCell id="26" value="初始化" style="whiteSpace=wrap;html=1;" parent="1" vertex="1"><mxGeometry y="350" width="140" height="50" as="geometry"/></mxCell><mxCell id="cGgcs7lgYfXuZMnNUs4B-46" style="edgeStyle=orthogonalEdgeStyle;rounded=0;orthogonalLoop=1;jettySize=auto;html=1;exitX=1;exitY=0.5;exitDx=0;exitDy=0;entryX=0.5;entryY=1;entryDx=0;entryDy=0;strokeWidth=2;" parent="1" source="27" target="28" edge="1"><mxGeometry relative="1" as="geometry"/></mxCell><mxCell id="cGgcs7lgYfXuZMnNUs4B-50" style="edgeStyle=orthogonalEdgeStyle;rounded=0;orthogonalLoop=1;jettySize=auto;html=1;exitX=0.5;exitY=1;exitDx=0;exitDy=0;entryX=0.5;entryY=0;entryDx=0;entryDy=0;strokeWidth=2;" parent="1" source="27" target="cGgcs7lgYfXuZMnNUs4B-49" edge="1"><mxGeometry relative="1" as="geometry"/></mxCell><mxCell id="27" value="执行后置处理方法" style="whiteSpace=wrap;html=1;" parent="1" vertex="1"><mxGeometry y="420" width="140" height="50" as="geometry"/></mxCell><mxCell id="cGgcs7lgYfXuZMnNUs4B-48" style="edgeStyle=orthogonalEdgeStyle;rounded=0;orthogonalLoop=1;jettySize=auto;html=1;exitX=1;exitY=0.5;exitDx=0;exitDy=0;entryX=0;entryY=0.5;entryDx=0;entryDy=0;strokeWidth=2;" parent="1" source="28" target="cGgcs7lgYfXuZMnNUs4B-47" edge="1"><mxGeometry relative="1" as="geometry"/></mxCell><mxCell id="28" value="BeanPostProcessor" style="whiteSpace=wrap;html=1;" parent="1" vertex="1"><mxGeometry x="440" y="350" width="130" height="50" as="geometry"/></mxCell><mxCell id="cGgcs7lgYfXuZMnNUs4B-38" style="edgeStyle=orthogonalEdgeStyle;rounded=0;orthogonalLoop=1;jettySize=auto;html=1;exitX=0.5;exitY=1;exitDx=0;exitDy=0;entryX=0.5;entryY=0;entryDx=0;entryDy=0;strokeWidth=2;" parent="1" source="cGgcs7lgYfXuZMnNUs4B-35" target="cGgcs7lgYfXuZMnNUs4B-37" edge="1"><mxGeometry relative="1" as="geometry"/></mxCell><mxCell id="cGgcs7lgYfXuZMnNUs4B-35" value="invokeInitMethods" style="whiteSpace=wrap;html=1;" parent="1" vertex="1"><mxGeometry x="230" y="350" width="140" height="50" as="geometry"/></mxCell><mxCell id="cGgcs7lgYfXuZMnNUs4B-40" style="edgeStyle=orthogonalEdgeStyle;rounded=0;orthogonalLoop=1;jettySize=auto;html=1;exitX=1;exitY=0.5;exitDx=0;exitDy=0;strokeWidth=2;" parent="1" source="cGgcs7lgYfXuZMnNUs4B-37" edge="1"><mxGeometry relative="1" as="geometry"><mxPoint x="440" y="500" as="targetPoint"/></mxGeometry></mxCell><mxCell id="cGgcs7lgYfXuZMnNUs4B-41" value="是" style="edgeLabel;html=1;align=center;verticalAlign=middle;resizable=0;points=[];" parent="cGgcs7lgYfXuZMnNUs4B-40" vertex="1" connectable="0"><mxGeometry x="-0.0857" relative="1" as="geometry"><mxPoint as="offset"/></mxGeometry></mxCell><mxCell id="cGgcs7lgYfXuZMnNUs4B-43" value="否" style="edgeStyle=orthogonalEdgeStyle;rounded=0;orthogonalLoop=1;jettySize=auto;html=1;exitX=0.5;exitY=1;exitDx=0;exitDy=0;strokeWidth=2;" parent="1" source="cGgcs7lgYfXuZMnNUs4B-37" edge="1"><mxGeometry relative="1" as="geometry"><mxPoint x="300" y="590" as="targetPoint"/></mxGeometry></mxCell><mxCell id="cGgcs7lgYfXuZMnNUs4B-37" value="是否实现了InitializingBean接口" style="rhombus;whiteSpace=wrap;html=1;" parent="1" vertex="1"><mxGeometry x="230" y="460" width="140" height="80" as="geometry"/></mxCell><mxCell id="cGgcs7lgYfXuZMnNUs4B-45" style="edgeStyle=orthogonalEdgeStyle;rounded=0;orthogonalLoop=1;jettySize=auto;html=1;exitX=0.5;exitY=1;exitDx=0;exitDy=0;entryX=1;entryY=0.5;entryDx=0;entryDy=0;strokeWidth=2;" parent="1" source="cGgcs7lgYfXuZMnNUs4B-42" target="cGgcs7lgYfXuZMnNUs4B-44" edge="1"><mxGeometry relative="1" as="geometry"/></mxCell><mxCell id="cGgcs7lgYfXuZMnNUs4B-42" value="afterPropertiesSet" style="whiteSpace=wrap;html=1;" parent="1" vertex="1"><mxGeometry x="440" y="470" width="120" height="60" as="geometry"/></mxCell><mxCell id="cGgcs7lgYfXuZMnNUs4B-44" value="invokeInitMethod" style="whiteSpace=wrap;html=1;" parent="1" vertex="1"><mxGeometry x="240" y="590" width="120" height="60" as="geometry"/></mxCell><mxCell id="cGgcs7lgYfXuZMnNUs4B-47" value="AoP" style="whiteSpace=wrap;html=1;" parent="1" vertex="1"><mxGeometry x="610" y="350" width="100" height="50" as="geometry"/></mxCell><mxCell id="cGgcs7lgYfXuZMnNUs4B-52" style="edgeStyle=orthogonalEdgeStyle;rounded=0;orthogonalLoop=1;jettySize=auto;html=1;exitX=0.5;exitY=1;exitDx=0;exitDy=0;entryX=0.5;entryY=0;entryDx=0;entryDy=0;strokeWidth=2;" parent="1" source="cGgcs7lgYfXuZMnNUs4B-49" target="cGgcs7lgYfXuZMnNUs4B-51" edge="1"><mxGeometry relative="1" as="geometry"/></mxCell><mxCell id="cGgcs7lgYfXuZMnNUs4B-49" value="使用对象" style="whiteSpace=wrap;html=1;" parent="1" vertex="1"><mxGeometry x="10" y="500" width="120" height="60" as="geometry"/></mxCell><mxCell id="cGgcs7lgYfXuZMnNUs4B-51" value="销毁对象" style="whiteSpace=wrap;html=1;" parent="1" vertex="1"><mxGeometry x="10" y="590" width="120" height="60" as="geometry"/></mxCell><mxCell id="30" value="&lt;font style=&quot;font-size: 18px&quot;&gt;循环依赖&lt;/font&gt;" style="text;html=1;align=center;verticalAlign=middle;resizable=0;points=[];autosize=1;strokeColor=none;" vertex="1" parent="1"><mxGeometry x="-10" y="760" width="90" height="20" as="geometry"/></mxCell><mxCell id="33" style="html=1;exitX=0.5;exitY=0;exitDx=0;exitDy=0;edgeStyle=orthogonalEdgeStyle;rounded=0;entryX=0.5;entryY=0;entryDx=0;entryDy=0;" edge="1" parent="1" source="31" target="32"><mxGeometry relative="1" as="geometry"><mxPoint x="320" y="840" as="targetPoint"/><Array as="points"><mxPoint x="50" y="840"/><mxPoint x="250" y="840"/></Array></mxGeometry></mxCell><mxCell id="31" value="A&amp;nbsp; 对象&lt;br&gt;b 属性" style="rounded=0;whiteSpace=wrap;html=1;" vertex="1" parent="1"><mxGeometry x="-10" y="880" width="120" height="60" as="geometry"/></mxCell><mxCell id="34" style="edgeStyle=orthogonalEdgeStyle;rounded=0;html=1;exitX=0.5;exitY=1;exitDx=0;exitDy=0;entryX=0.5;entryY=1;entryDx=0;entryDy=0;" edge="1" parent="1" source="32" target="31"><mxGeometry relative="1" as="geometry"><Array as="points"><mxPoint x="250" y="980"/><mxPoint x="50" y="980"/></Array></mxGeometry></mxCell><mxCell id="32" value="B&amp;nbsp; 对象&lt;br&gt;a 属性" style="rounded=0;whiteSpace=wrap;html=1;" vertex="1" parent="1"><mxGeometry x="190" y="880" width="120" height="60" as="geometry"/></mxCell></root></mxGraphModel>